<mxfile host="app.diagrams.net" modified="2024-02-08T15:40:09.464Z" agent="Mozilla/5.0 (Macintosh; Intel Mac OS X 10_15_7) AppleWebKit/537.36 (KHTML, like Gecko) Chrome/120.0.0.0 Safari/537.36" etag="tCjApF4miZzfy0MK877f" version="23.1.2" type="device">
  <diagram id="prtHgNgQTEPvFCAcTncT" name="Page-1">
    <mxGraphModel dx="1004" dy="584" grid="1" gridSize="10" guides="1" tooltips="1" connect="1" arrows="1" fold="1" page="1" pageScale="1" pageWidth="3300" pageHeight="4681" math="0" shadow="0">
      <root>
        <mxCell id="0" />
        <mxCell id="1" parent="0" />
        <mxCell id="50zLFCO2Sk6e04f86CJf-1" value="&lt;font style=&quot;font-size: 23px;&quot;&gt;App&lt;/font&gt;" style="rounded=1;whiteSpace=wrap;html=1;" parent="1" vertex="1">
          <mxGeometry x="930" y="50" width="180" height="80" as="geometry" />
        </mxCell>
        <mxCell id="50zLFCO2Sk6e04f86CJf-2" value="&lt;font style=&quot;font-size: 23px;&quot;&gt;Interface&lt;/font&gt;" style="rounded=1;whiteSpace=wrap;html=1;" parent="1" vertex="1">
          <mxGeometry x="930" y="230" width="180" height="80" as="geometry" />
        </mxCell>
        <mxCell id="50zLFCO2Sk6e04f86CJf-3" value="&lt;font style=&quot;font-size: 23px;&quot;&gt;Character&lt;/font&gt;" style="rounded=1;whiteSpace=wrap;html=1;" parent="1" vertex="1">
          <mxGeometry x="1510" y="570" width="180" height="80" as="geometry" />
        </mxCell>
        <mxCell id="50zLFCO2Sk6e04f86CJf-4" value="&lt;font style=&quot;font-size: 23px;&quot;&gt;Quote&lt;/font&gt;" style="rounded=1;whiteSpace=wrap;html=1;" parent="1" vertex="1">
          <mxGeometry x="1530" y="720" width="180" height="80" as="geometry" />
        </mxCell>
        <mxCell id="50zLFCO2Sk6e04f86CJf-5" value="&lt;font style=&quot;font-size: 23px;&quot;&gt;Name&lt;span style=&quot;white-space: pre;&quot;&gt;&#x9;&lt;/span&gt;&lt;/font&gt;" style="rounded=1;whiteSpace=wrap;html=1;" parent="1" vertex="1">
          <mxGeometry x="1310" y="720" width="180" height="80" as="geometry" />
        </mxCell>
        <mxCell id="50zLFCO2Sk6e04f86CJf-6" value="&lt;font style=&quot;font-size: 23px;&quot;&gt;Image&lt;/font&gt;" style="rounded=1;whiteSpace=wrap;html=1;" parent="1" vertex="1">
          <mxGeometry x="1750" y="720" width="180" height="80" as="geometry" />
        </mxCell>
        <mxCell id="50zLFCO2Sk6e04f86CJf-7" value="&lt;font style=&quot;font-size: 23px;&quot;&gt;Controls&lt;/font&gt;" style="rounded=1;whiteSpace=wrap;html=1;" parent="1" vertex="1">
          <mxGeometry x="1970" y="720" width="180" height="80" as="geometry" />
        </mxCell>
        <mxCell id="50zLFCO2Sk6e04f86CJf-8" value="&lt;font style=&quot;font-size: 23px;&quot;&gt;DeleteBtn&lt;/font&gt;" style="rounded=1;whiteSpace=wrap;html=1;" parent="1" vertex="1">
          <mxGeometry x="1860" y="880" width="180" height="80" as="geometry" />
        </mxCell>
        <mxCell id="50zLFCO2Sk6e04f86CJf-9" value="&lt;font style=&quot;font-size: 23px;&quot;&gt;LikeBtn&lt;/font&gt;" style="rounded=1;whiteSpace=wrap;html=1;" parent="1" vertex="1">
          <mxGeometry x="2080" y="880" width="180" height="80" as="geometry" />
        </mxCell>
        <mxCell id="50zLFCO2Sk6e04f86CJf-11" value="" style="endArrow=classic;html=1;rounded=0;entryX=0.5;entryY=0;entryDx=0;entryDy=0;exitX=0.5;exitY=1;exitDx=0;exitDy=0;" parent="1" source="50zLFCO2Sk6e04f86CJf-7" target="50zLFCO2Sk6e04f86CJf-9" edge="1">
          <mxGeometry width="50" height="50" relative="1" as="geometry">
            <mxPoint x="1810" y="970" as="sourcePoint" />
            <mxPoint x="1860" y="920" as="targetPoint" />
          </mxGeometry>
        </mxCell>
        <mxCell id="50zLFCO2Sk6e04f86CJf-12" value="" style="endArrow=classic;html=1;rounded=0;entryX=0.5;entryY=0;entryDx=0;entryDy=0;exitX=0.5;exitY=1;exitDx=0;exitDy=0;" parent="1" source="50zLFCO2Sk6e04f86CJf-7" target="50zLFCO2Sk6e04f86CJf-8" edge="1">
          <mxGeometry width="50" height="50" relative="1" as="geometry">
            <mxPoint x="1920" y="810" as="sourcePoint" />
            <mxPoint x="2040" y="880" as="targetPoint" />
          </mxGeometry>
        </mxCell>
        <mxCell id="50zLFCO2Sk6e04f86CJf-13" value="" style="endArrow=classic;html=1;rounded=0;entryX=0.5;entryY=0;entryDx=0;entryDy=0;exitX=0.5;exitY=1;exitDx=0;exitDy=0;" parent="1" target="50zLFCO2Sk6e04f86CJf-7" edge="1">
          <mxGeometry width="50" height="50" relative="1" as="geometry">
            <mxPoint x="1600" y="650" as="sourcePoint" />
            <mxPoint x="1720" y="720" as="targetPoint" />
          </mxGeometry>
        </mxCell>
        <mxCell id="50zLFCO2Sk6e04f86CJf-14" value="" style="endArrow=classic;html=1;rounded=0;entryX=0.5;entryY=0;entryDx=0;entryDy=0;exitX=0.5;exitY=1;exitDx=0;exitDy=0;" parent="1" source="50zLFCO2Sk6e04f86CJf-3" target="50zLFCO2Sk6e04f86CJf-6" edge="1">
          <mxGeometry width="50" height="50" relative="1" as="geometry">
            <mxPoint x="1610" y="660" as="sourcePoint" />
            <mxPoint x="1920" y="730" as="targetPoint" />
          </mxGeometry>
        </mxCell>
        <mxCell id="50zLFCO2Sk6e04f86CJf-15" value="" style="endArrow=classic;html=1;rounded=0;entryX=0.5;entryY=0;entryDx=0;entryDy=0;exitX=0.5;exitY=1;exitDx=0;exitDy=0;" parent="1" source="50zLFCO2Sk6e04f86CJf-3" target="50zLFCO2Sk6e04f86CJf-4" edge="1">
          <mxGeometry width="50" height="50" relative="1" as="geometry">
            <mxPoint x="1620" y="670" as="sourcePoint" />
            <mxPoint x="1930" y="740" as="targetPoint" />
          </mxGeometry>
        </mxCell>
        <mxCell id="50zLFCO2Sk6e04f86CJf-16" value="" style="endArrow=classic;html=1;rounded=0;entryX=0.5;entryY=0;entryDx=0;entryDy=0;" parent="1" target="50zLFCO2Sk6e04f86CJf-5" edge="1">
          <mxGeometry width="50" height="50" relative="1" as="geometry">
            <mxPoint x="1600" y="650" as="sourcePoint" />
            <mxPoint x="1940" y="750" as="targetPoint" />
          </mxGeometry>
        </mxCell>
        <mxCell id="50zLFCO2Sk6e04f86CJf-17" value="" style="endArrow=classic;html=1;rounded=0;exitX=0.5;exitY=1;exitDx=0;exitDy=0;entryX=0.5;entryY=0;entryDx=0;entryDy=0;" parent="1" target="50zLFCO2Sk6e04f86CJf-3" edge="1">
          <mxGeometry width="50" height="50" relative="1" as="geometry">
            <mxPoint x="1390" y="470" as="sourcePoint" />
            <mxPoint x="1520" y="510" as="targetPoint" />
          </mxGeometry>
        </mxCell>
        <mxCell id="50zLFCO2Sk6e04f86CJf-18" value="" style="endArrow=classic;html=1;rounded=0;exitX=0.5;exitY=1;exitDx=0;exitDy=0;entryX=0.5;entryY=0;entryDx=0;entryDy=0;" parent="1" edge="1">
          <mxGeometry width="50" height="50" relative="1" as="geometry">
            <mxPoint x="1019.67" y="130" as="sourcePoint" />
            <mxPoint x="1019.67" y="230" as="targetPoint" />
          </mxGeometry>
        </mxCell>
        <mxCell id="50zLFCO2Sk6e04f86CJf-20" value="State" style="shape=cylinder3;whiteSpace=wrap;html=1;boundedLbl=1;backgroundOutline=1;size=15;" parent="1" vertex="1">
          <mxGeometry x="1080" y="230" width="60" height="80" as="geometry" />
        </mxCell>
        <mxCell id="50zLFCO2Sk6e04f86CJf-21" value="&lt;font style=&quot;font-size: 19px;&quot;&gt;Multiple characters&lt;/font&gt;" style="text;strokeColor=none;align=center;fillColor=none;html=1;verticalAlign=middle;whiteSpace=wrap;rounded=0;" parent="1" vertex="1">
          <mxGeometry x="1720" y="580" width="260" height="50" as="geometry" />
        </mxCell>
        <mxCell id="50zLFCO2Sk6e04f86CJf-22" value="&lt;font style=&quot;font-size: 23px;&quot;&gt;Likes&lt;/font&gt;" style="rounded=1;whiteSpace=wrap;html=1;" parent="1" vertex="1">
          <mxGeometry x="630" y="390" width="180" height="80" as="geometry" />
        </mxCell>
        <mxCell id="50zLFCO2Sk6e04f86CJf-23" value="" style="endArrow=classic;html=1;rounded=0;entryX=0.5;entryY=0;entryDx=0;entryDy=0;exitX=0.5;exitY=1;exitDx=0;exitDy=0;" parent="1" source="50zLFCO2Sk6e04f86CJf-2" target="50zLFCO2Sk6e04f86CJf-22" edge="1">
          <mxGeometry width="50" height="50" relative="1" as="geometry">
            <mxPoint x="1010" y="290" as="sourcePoint" />
            <mxPoint x="1230" y="400" as="targetPoint" />
          </mxGeometry>
        </mxCell>
        <mxCell id="QLLsaUYmAxkY_fb2T8xR-1" value="&lt;font style=&quot;font-size: 23px;&quot;&gt;Characters&lt;/font&gt;" style="rounded=1;whiteSpace=wrap;html=1;" vertex="1" parent="1">
          <mxGeometry x="1290" y="390" width="180" height="80" as="geometry" />
        </mxCell>
        <mxCell id="QLLsaUYmAxkY_fb2T8xR-2" value="&lt;font style=&quot;font-size: 23px;&quot;&gt;Header&lt;/font&gt;" style="rounded=1;whiteSpace=wrap;html=1;" vertex="1" parent="1">
          <mxGeometry x="940" y="390" width="180" height="80" as="geometry" />
        </mxCell>
        <mxCell id="QLLsaUYmAxkY_fb2T8xR-4" value="" style="endArrow=classic;html=1;rounded=0;entryX=0.5;entryY=0;entryDx=0;entryDy=0;" edge="1" parent="1" target="QLLsaUYmAxkY_fb2T8xR-2">
          <mxGeometry width="50" height="50" relative="1" as="geometry">
            <mxPoint x="1020" y="310" as="sourcePoint" />
            <mxPoint x="1180" y="410" as="targetPoint" />
          </mxGeometry>
        </mxCell>
        <mxCell id="QLLsaUYmAxkY_fb2T8xR-5" value="" style="endArrow=classic;html=1;rounded=0;entryX=0.5;entryY=0;entryDx=0;entryDy=0;exitX=0.5;exitY=1;exitDx=0;exitDy=0;" edge="1" parent="1" source="50zLFCO2Sk6e04f86CJf-2" target="QLLsaUYmAxkY_fb2T8xR-1">
          <mxGeometry width="50" height="50" relative="1" as="geometry">
            <mxPoint x="1030" y="320" as="sourcePoint" />
            <mxPoint x="1040" y="400" as="targetPoint" />
          </mxGeometry>
        </mxCell>
        <mxCell id="QLLsaUYmAxkY_fb2T8xR-6" value="&lt;font style=&quot;font-size: 23px;&quot;&gt;Title&lt;/font&gt;" style="rounded=1;whiteSpace=wrap;html=1;" vertex="1" parent="1">
          <mxGeometry x="840" y="530" width="180" height="80" as="geometry" />
        </mxCell>
        <mxCell id="QLLsaUYmAxkY_fb2T8xR-7" value="&lt;span style=&quot;font-size: 23px;&quot;&gt;Search&lt;/span&gt;" style="rounded=1;whiteSpace=wrap;html=1;" vertex="1" parent="1">
          <mxGeometry x="1060" y="530" width="180" height="80" as="geometry" />
        </mxCell>
        <mxCell id="QLLsaUYmAxkY_fb2T8xR-8" value="" style="endArrow=classic;html=1;rounded=0;entryX=0.5;entryY=0;entryDx=0;entryDy=0;exitX=0.5;exitY=1;exitDx=0;exitDy=0;" edge="1" parent="1" source="QLLsaUYmAxkY_fb2T8xR-2" target="QLLsaUYmAxkY_fb2T8xR-7">
          <mxGeometry width="50" height="50" relative="1" as="geometry">
            <mxPoint x="1040" y="470" as="sourcePoint" />
            <mxPoint x="1050" y="550" as="targetPoint" />
          </mxGeometry>
        </mxCell>
        <mxCell id="QLLsaUYmAxkY_fb2T8xR-9" value="" style="endArrow=classic;html=1;rounded=0;entryX=0.5;entryY=0;entryDx=0;entryDy=0;" edge="1" parent="1" target="QLLsaUYmAxkY_fb2T8xR-6">
          <mxGeometry width="50" height="50" relative="1" as="geometry">
            <mxPoint x="1030" y="470" as="sourcePoint" />
            <mxPoint x="1160" y="540" as="targetPoint" />
          </mxGeometry>
        </mxCell>
      </root>
    </mxGraphModel>
  </diagram>
</mxfile>
